<?xml version="1.0" encoding="utf-8"?>
<!-- Generator: Adobe Illustrator 25.4.1, SVG Export Plug-In . SVG Version: 6.00 Build 0)  -->
<svg version="1.1" id="Capa_1" xmlns="http://www.w3.org/2000/svg" xmlns:xlink="http://www.w3.org/1999/xlink" x="0px" y="0px"
	 viewBox="0 0 200 200" style="enable-background:new 0 0 200 200;" xml:space="preserve">
<style type="text/css">
	.st0{fill:#B2B2B2;}
	.st1{opacity:0.75;fill:#FFFFFF;}
	.st2{fill:#008089;}
	.st3{fill:#DADADA;}
	.st4{opacity:0.75;}
	.st5{fill:#FFFFFF;}
	.st6{fill:#C7E8E8;}
	.st7{fill:#C6C6C6;}
	.st8{opacity:0.15;fill:#1D1D1B;}
	.st9{fill:#EDEDED;}
	.st10{opacity:0.5;fill:#FFFFFF;}
</style>
<g>
	<path class="st0" d="M7.9,94.2H7.3c-0.1,0-0.2-0.1-0.2-0.2v-8.6c0-0.1,0.1-0.2,0.2-0.2h0.5C8,85.3,8,85.4,8,85.5v8.6
		C8,94.2,8,94.2,7.9,94.2z"/>
	<path class="st0" d="M3.4,87.6c0-1.6,0-3.2,0-4.9c1.8-0.8,3.8-0.8,5.5,0c0,1.6,0,3.2,0,4.9C7.2,88.4,5.2,88.4,3.4,87.6z"/>
	<path class="st1" d="M8.6,84.2V83c-1.5-0.7-3.3-0.7-4.8,0v0.3C5.6,82.6,7.7,83.2,8.6,84.2z"/>
	<path class="st2" d="M6.9,88.8H6.2c-0.1,0-0.2-0.1-0.2-0.2v-6.7c0-0.1,0.1-0.2,0.2-0.2h0.8c0.1,0,0.2,0.1,0.2,0.2l0,6.7
		C7.2,88.7,7.1,88.8,6.9,88.8z"/>
	<rect x="1.4" y="51.4" class="st3" width="4.7" height="105"/>
	<path class="st3" d="M17.7,40.4c6,0,10.9,4.4,11.7,10.1h4.3c-0.9-8.1-7.7-14.4-16.1-14.4S2.5,42.5,1.6,50.6h4.3
		C6.8,44.8,11.7,40.4,17.7,40.4z"/>
	<g class="st4">
		<path class="st5" d="M17.2,37.9c1.8,0,3.4,0.3,5,0.9c-1.7-0.8-3.7-1.3-5.7-1.3C9.3,37.6,3.5,43,2.7,49.9h0.8
			C4.4,43.1,10.2,37.9,17.2,37.9z"/>
	</g>
	<g>
		<path class="st0" d="M29.2,53h4.7c0.1,0,0.2-0.1,0.2-0.2v-1.6c0-0.1-0.1-0.2-0.2-0.2h-4.7c-0.1,0-0.2,0.1-0.2,0.2v1.6
			C29,52.9,29.1,53,29.2,53z"/>
	</g>
	
		<rect x="2.6" y="51.5" transform="matrix(-1 4.138011e-11 -4.138011e-11 -1 5.9907 207.8804)" class="st1" width="0.8" height="104.8"/>
	<path class="st2" d="M34.2,51H29c-0.1,0-0.2-0.1-0.2-0.2v-0.5c0-0.1,0.1-0.2,0.2-0.2h5.2c0.1,0,0.2,0.1,0.2,0.2v0.5
		C34.3,51,34.2,51,34.2,51z"/>
	<path class="st2" d="M6.3,51.5H1.1c-0.1,0-0.2-0.1-0.2-0.2v-0.7c0-0.1,0.1-0.2,0.2-0.2h5.3c0.1,0,0.2,0.1,0.2,0.2v0.7
		C6.5,51.4,6.4,51.5,6.3,51.5z"/>
	<g>
		<g>
			<path class="st6" d="M31.6,159.7c-1.2,1-2,2-0.8,3l0,0c1.2,1,3.9,1.7,5,0.7c3.3-2.6,2.5-8.7,5.8-11.3c1.2-1,2-2,0.8-3l0,0
				c-1.2-1-3.9-1.7-5-0.7C34.1,151.1,34.8,157.1,31.6,159.7z"/>
			<g>
				<path class="st7" d="M17.8,111.4c1.3,4.5,2.1,9,2.4,13.5c0.7,15.1,6.5,27.7,22,28.1c40.7,0.8,81.5,0.8,122.2,0
					c15.6-0.4,21.3-13.1,22-28.1c0.2-4.5,4.1-22.2,7.4-28.4C136.8,95.3,74.8,110.2,17.8,111.4z"/>
				<path class="st8" d="M29.1,142.7c3.1,4.2,7.5,6.3,13.2,6.5c20.2,0.4,40.8,0.6,61,0.6c20.2,0,40.8-0.2,61-0.6
					c5.8-0.1,10.2-2.3,13.2-6.5H29.1z"/>
				<path class="st9" d="M192.6,97.5c-58-1.2-118.3,12.7-176.3,13.9c-2,0-4.2-1.7-5.1-3.8l0,0c-0.8-2.1,0-3.9,2.2-4
					c59.9-1.8,123.6-16.3,183.6-14.6c2.1,0.1,3.8,2.2,2.6,5.5C199.6,94.6,199,97.9,192.6,97.5z"/>
			</g>
			<path class="st6" d="M173.7,159.7c1.2,1,2,2,0.8,3l0,0c-1.2,1-3.9,1.7-5,0.7c-3.3-2.6-2.5-8.7-5.8-11.3c-1.2-1-2-2-0.8-3l0,0
				c1.2-1,3.9-1.7,5-0.7C171.2,151.1,170.4,157.1,173.7,159.7z"/>
			<path class="st2" d="M173.7,159.7c1.2,1,2,2,0.8,3l0,0c-1.2,1-3.9,1.7-5,0.7c-3.3-2.6-2.5-8.7-5.8-11.3c-1.2-1-2-2-0.8-3l0,0
				c1.2-1,3.9-1.7,5-0.7C171.2,151.1,170.4,157.1,173.7,159.7z"/>
			<path class="st2" d="M31.6,159.7c-1.2,1-2,2-0.8,3l0,0c1.2,1,3.9,1.7,5,0.7c3.3-2.6,2.5-8.7,5.8-11.3c1.2-1,2-2,0.8-3l0,0
				c-1.2-1-3.9-1.7-5-0.7C34.1,151.1,34.8,157.1,31.6,159.7z"/>
		</g>
		<path class="st10" d="M187.3,100.2c-2.3,0,0,0-2.3,0c-10.8,10.3-1.9,35-24.8,39.4h19.1c1.9-3.8,3-8.8,3.3-14.9
			c0.2-3.7,2.7-16,5.6-24.4H187.3z"/>
		<path class="st10" d="M22.7,115.1c0.7,3.2,1.1,6.4,1.3,9.6c0.3,6.1,1.4,11.1,3.2,14.9h9.9c-8.4-4.1-9.8-13.8-9.7-24.7
			C25.9,114.9,24.3,115,22.7,115.1z"/>
	</g>
	<circle class="st2" cx="3.6" cy="85" r="3.6"/>
	<path class="st0" d="M6.7,93.7l-0.5,0.2c-0.1,0-0.2,0-0.2-0.1l-2.8-8.1c0-0.1,0-0.2,0.1-0.2l0.5-0.2c0.1,0,0.2,0,0.2,0.1l2.8,8.1
		C6.9,93.6,6.8,93.7,6.7,93.7z"/>
	<circle class="st0" cx="3.6" cy="85" r="2.7"/>
	<path class="st1" d="M2.7,83.4c-0.6,0.4-1,1-1,1.8c0,0.8,0.4,1.4,1,1.8C2,85.8,2.1,84.6,2.7,83.4z"/>
</g>
</svg>
